<?xml version="1.0" standalone="no"?>
<!DOCTYPE svg PUBLIC "-//W3C//DTD SVG 20010904//EN"
 "http://www.w3.org/TR/2001/REC-SVG-20010904/DTD/svg10.dtd">
<svg version="1.0" xmlns="http://www.w3.org/2000/svg"
 width="700.000000pt" height="700.000000pt" viewBox="0 0 700.000000 700.000000"
 preserveAspectRatio="xMidYMid meet">
<metadata>
Created by potrace 1.14, written by Peter Selinger 2001-2017
</metadata>
<g transform="translate(0.000000,700.000000) scale(0.100000,-0.100000)"
fill="#000000" stroke="none">
<path d="M3280 6994 c-19 -2 -84 -9 -145 -14 -410 -40 -846 -169 -1225 -362
-343 -176 -628 -387 -908 -672 -561 -572 -883 -1252 -984 -2081 -7 -56 -12
-217 -12 -365 0 -268 7 -362 45 -588 96 -575 348 -1138 716 -1597 115 -144
339 -373 483 -494 537 -451 1157 -715 1885 -803 135 -16 590 -16 735 1 512 58
1002 222 1426 478 635 383 1136 957 1422 1628 255 599 339 1259 242 1898 -93
610 -340 1176 -726 1662 -116 147 -431 459 -574 569 -523 404 -1101 642 -1750
722 -117 15 -553 27 -630 18z m-860 -1756 c0 -7 -47 -253 -105 -547 -58 -293
-104 -535 -103 -537 2 -1 34 22 72 52 167 134 351 180 562 139 198 -38 356
-163 454 -360 80 -162 116 -393 100 -645 -39 -595 -261 -1037 -605 -1201 -114
-55 -182 -71 -327 -76 -195 -8 -307 23 -433 120 -33 26 -76 67 -95 92 -19 25
-38 45 -41 45 -4 0 -24 -50 -45 -110 l-39 -110 -308 0 -307 0 5 23 c3 12 125
708 270 1547 146 839 268 1537 271 1553 l6 27 334 0 c260 0 334 -3 334 -12z
m2316 -5 c-3 -10 -51 -250 -106 -533 -56 -283 -104 -526 -107 -540 -6 -21 1
-18 50 25 72 65 148 110 239 143 66 24 87 26 208 26 124 0 142 -2 220 -30 169
-60 287 -168 371 -339 129 -265 142 -640 38 -1065 -94 -380 -283 -657 -533
-779 -116 -57 -181 -72 -336 -78 -155 -6 -233 8 -336 58 -68 34 -161 112 -205
172 -28 39 -29 39 -37 16 -5 -13 -23 -66 -42 -116 l-32 -93 -304 0 c-237 0
-304 3 -304 13 0 6 122 711 270 1566 149 855 270 1558 270 1562 0 5 153 9 341
9 319 0 340 -1 335 -17z"/>
<path d="M2368 3811 c-72 -23 -112 -48 -170 -108 l-47 -48 -81 -447 c-90 -500
-89 -468 -18 -539 56 -56 109 -73 223 -74 93 0 105 2 167 33 175 86 251 283
288 750 16 202 -13 329 -92 396 -66 57 -165 70 -270 37z"/>
<path d="M4706 3819 c-65 -16 -155 -70 -199 -119 l-42 -47 -81 -444 -81 -444
18 -36 c25 -51 91 -104 147 -120 26 -8 88 -14 137 -14 78 0 98 4 146 28 100
48 172 145 218 288 51 157 93 544 74 670 -25 159 -100 239 -230 245 -38 2 -85
-1 -107 -7z"/>
</g>
</svg>
