<svg width="390" height="337" viewBox="0 0 390 337" fill="none" xmlns="http://www.w3.org/2000/svg">
<path fill-rule="evenodd" clip-rule="evenodd" d="M192.831 5.67444C232.298 3.29826 278.731 -9.17929 308.024 16.3805C337.387 42.0015 317.096 90.0057 330.583 125.87C344.855 163.822 398.554 190.917 388.386 230.074C378.362 268.674 326.002 280.418 287.011 293.664C256.651 303.978 224.546 291.17 192.831 296.51C150.253 303.68 106.852 353.537 71.2125 330.002C35.9532 306.719 74.1744 249.29 61.7153 209.928C49.6679 171.867 -4.39594 148.461 1.27514 109.049C6.87342 70.1434 52.054 48.8613 87.6564 29.6482C119.868 12.2648 155.971 7.89369 192.831 5.67444Z" fill="white"/>
</svg>
