<svg width="405" height="396" viewBox="0 0 405 396" fill="none" xmlns="http://www.w3.org/2000/svg">
<path fill-rule="evenodd" clip-rule="evenodd" d="M196.921 0.124808C237.463 -2.47918 266.566 36.277 300.225 59.0551C335.4 82.8597 381.717 96.7305 397.806 136.072C414.205 176.173 394.904 220.32 383.239 262.05C371.024 305.745 366.892 358.621 328.747 383.116C290.828 407.467 240.864 391.62 196.921 381.695C161.276 373.644 130.243 355.433 102.219 331.952C75.9732 309.96 57.5831 282.336 41.9572 251.849C23.2536 215.357 -10.1489 177.184 2.97969 138.331C16.1172 99.4507 69.4212 95.5336 102.818 71.7347C135.722 48.2865 156.618 2.71352 196.921 0.124808Z" fill="#F2E1E1"/>
</svg>
