<svg width="64" height="64" viewBox="0 0 64 64" fill="none" xmlns="http://www.w3.org/2000/svg">
<path fill-rule="evenodd" clip-rule="evenodd" d="M32 12C23.4667 12 18.1333 16.2667 16 24.8C19.2 20.5333 22.9333 18.9333 27.2 20C29.6344 20.608 31.3742 22.3751 33.3001 24.3295C36.4373 27.5141 40.0687 31.2 48 31.2C56.5333 31.2 61.8667 26.9333 64 18.4C60.8 22.6667 57.0667 24.2667 52.8 23.2C50.3656 22.592 48.6258 20.8249 46.6999 18.8705C43.5627 15.6859 39.9313 12 32 12ZM16 31.2C7.46667 31.2 2.13333 35.4667 0 44C3.2 39.7333 6.93333 38.1333 11.2 39.2C13.6344 39.8092 15.3742 41.5751 17.3001 43.5295C20.4373 46.7141 24.0687 50.4 32 50.4C40.5333 50.4 45.8667 46.1333 48 37.6C44.8 41.8667 41.0667 43.4667 36.8 42.4C34.3656 41.792 32.6258 40.0249 30.6999 38.0705C27.5627 34.8859 23.9313 31.2 16 31.2Z" fill="#06B6D4"/>
</svg>
